<svg width="178" height="46" viewBox="0 0 178 46" fill="none" xmlns="http://www.w3.org/2000/svg">
<path d="M0.896794 2.10687H4.3644C6.99499 2.10687 10.7017 1.50901 13.3323 1.50901C17.5473 1.50901 21.4035 2.8243 21.4035 7.00934C21.4035 14.8114 7.89179 14.2136 7.89179 17.5317C7.89179 18.2193 8.39997 18.3089 8.75869 18.3089C10.0142 18.3089 12.1067 16.4855 14.9765 16.4855C19.5501 16.4855 23.2867 19.415 23.2867 23.9587C23.2867 29.1303 19.7295 32.5979 13.3622 32.5979C9.89463 32.5979 7.77221 32 4.48397 32H0.896794V31.7011C3.4676 31.7011 3.64696 29.5787 3.64696 23.6897V10.4172C3.64696 4.52821 3.4676 2.4058 0.896794 2.4058V2.10687ZM6.18788 2.76452V31.2228C8.01136 31.8804 9.44623 32.1794 11.6583 32.1794C17.2184 32.1794 20.7159 29.1303 20.7159 24.168C20.7159 20.5808 18.6832 16.8143 14.9466 16.8143C12.4355 16.8143 10.4028 18.6079 8.63911 18.6079C8.10104 18.6079 7.59286 18.3089 7.59286 17.5915C7.59286 13.6755 18.8327 13.1075 18.8327 7.06913C18.8327 3.36238 15.2455 1.92751 11.5985 1.92751C9.65548 1.92751 7.92168 2.22644 6.18788 2.76452ZM24.4785 32V31.7011C27.0493 31.7011 27.2287 29.5787 27.2287 23.6897V10.4172C27.2287 4.52821 27.0493 2.4058 24.4785 2.4058V2.10687H29.7995V23.6897C29.7995 29.5787 29.9788 31.7011 32.5496 31.7011V32H24.4785ZM33.7477 25.9616C33.7477 15.4392 48.8736 18.8769 48.8736 13.9445C48.8736 11.5232 46.0637 10.5367 43.6423 10.5367C40.8025 10.5367 38.0523 11.5232 38.0523 14.0043C38.0523 15.1403 38.979 15.6485 39.248 15.3794C39.547 16.2762 38.5605 17.1132 37.574 17.1132C36.2886 17.1132 35.4217 16.0072 35.4217 14.7218C35.4217 11.7624 38.9491 10.2378 43.6423 10.2378C47.0203 10.2378 51.4145 11.6428 51.4145 14.0043C51.4145 18.8171 36.3783 14.4527 36.3783 26.1409C36.3783 29.2498 38.3513 31.6114 41.2808 31.6114C44.5092 31.6114 48.6046 28.2933 48.6046 19.5944C48.6046 18.9367 48.5448 18.2492 48.0964 18.1296C48.0964 17.9502 48.4252 17.7111 48.9035 17.7111C51.0857 17.7111 51.3548 19.983 51.3548 22.3744C51.3548 25.0349 51.3847 25.4833 51.3847 28.652C51.3847 31.163 52.8494 31.7011 53.6565 31.7011V32H51.5341C49.9498 32 48.6943 30.5352 48.6943 28.2933V23.1815C47.6181 28.3231 45.6452 32.5979 40.4139 32.5979C36.5577 32.5979 33.7477 29.8178 33.7477 25.9616ZM53.6593 31.7011C56.2301 31.7011 56.4095 29.5787 56.4095 23.6897V19.146C56.4095 13.257 56.2301 11.1346 53.6593 11.1346V10.8357H57.0672C59.5184 10.8357 63.255 10.2378 64.9589 10.2378C67.6194 10.2378 72.9404 10.6264 72.9404 16.904V23.6897C72.9404 29.5787 73.1198 31.7011 75.6906 31.7011V32H67.6194V31.7011C70.1902 31.7011 70.3696 29.5787 70.3696 23.6897C70.3696 22.7929 70.3397 17.5317 70.3397 17.5317C70.3397 10.8357 65.6465 10.6563 63.6137 10.6563C62.0892 10.6563 60.4152 11.015 58.9803 11.5232V23.6897C58.9803 29.5787 59.1597 31.7011 61.7305 31.7011V32H53.6593V31.7011ZM86.844 32.5979C80.417 32.5979 76.5906 27.5758 76.5906 21.4178C76.5906 15.2598 80.417 10.2378 86.844 10.2378C91.8959 10.2378 95.1244 12.3303 95.1244 12.3303V15.8577H95.0048C93.3607 12.5695 89.923 10.5965 86.7842 10.5965C80.7159 10.5965 79.1017 17.1132 79.1614 21.3282C79.2212 26.8883 82.4198 31.5815 87.9201 31.5815C90.2817 31.5815 94.2276 30.2961 95.6923 26.4399L96.1108 26.6192C94.5564 30.1765 91.2981 32.5979 86.844 32.5979ZM97.0196 25.9616C97.0196 15.4392 112.145 18.8769 112.145 13.9445C112.145 11.5232 109.336 10.5367 106.914 10.5367C104.074 10.5367 101.324 11.5232 101.324 14.0043C101.324 15.1403 102.251 15.6485 102.52 15.3794C102.819 16.2762 101.832 17.1132 100.846 17.1132C99.5605 17.1132 98.6936 16.0072 98.6936 14.7218C98.6936 11.7624 102.221 10.2378 106.914 10.2378C110.292 10.2378 114.686 11.6428 114.686 14.0043C114.686 18.8171 99.6502 14.4527 99.6502 26.1409C99.6502 29.2498 101.623 31.6114 104.553 31.6114C107.781 31.6114 111.876 28.2933 111.876 19.5944C111.876 18.9367 111.817 18.2492 111.368 18.1296C111.368 17.9502 111.697 17.7111 112.175 17.7111C114.358 17.7111 114.627 19.983 114.627 22.3744C114.627 25.0349 114.657 25.4833 114.657 28.652C114.657 31.163 116.121 31.7011 116.928 31.7011V32H114.806C113.222 32 111.966 30.5352 111.966 28.2933V23.1815C110.89 28.3231 108.917 32.5979 103.686 32.5979C99.8295 32.5979 97.0196 29.8178 97.0196 25.9616ZM116.931 31.7011C119.502 31.7011 119.681 29.5787 119.681 23.6897V19.146C119.681 13.257 119.502 11.1346 116.931 11.1346V10.8357H120.339C122.79 10.8357 126.527 10.2378 128.231 10.2378C130.891 10.2378 136.212 10.6264 136.212 16.904V23.6897C136.212 29.5787 136.392 31.7011 138.962 31.7011V32H130.891V31.7011C133.462 31.7011 133.641 29.5787 133.641 23.6897C133.641 22.7929 133.612 17.5317 133.612 17.5317C133.612 10.8357 128.918 10.6563 126.886 10.6563C125.361 10.6563 123.687 11.015 122.252 11.5232V23.6897C122.252 29.5787 122.432 31.7011 125.002 31.7011V32H116.931V31.7011ZM136.726 11.1346V10.8357H140.403C141.748 10.8357 142.555 12.0613 142.914 13.2271C144.498 18.3687 145.485 21.8064 147.338 27.6057C147.876 29.2797 148.653 30.0868 149.52 30.2064C151.045 25.4235 152.33 21.4178 153.436 17.6214C154.124 15.23 154.752 11.1346 151.404 11.1346H150.746V10.8357H158.608V11.1346H158.1C156.037 11.1346 154.572 15.1403 154.004 16.9638C152.539 21.657 151.075 26.4997 149.132 32.5979C149.132 32.5979 146.441 33.1658 144.648 27.6057C143.063 22.6733 142.137 19.4449 140.881 15.4093C140.313 13.5858 139.596 11.1346 137.443 11.1346H136.726ZM157.139 25.9616C157.139 15.4392 172.265 18.8769 172.265 13.9445C172.265 11.5232 169.455 10.5367 167.033 10.5367C164.193 10.5367 161.443 11.5232 161.443 14.0043C161.443 15.1403 162.37 15.6485 162.639 15.3794C162.938 16.2762 161.951 17.1132 160.965 17.1132C159.68 17.1132 158.813 16.0072 158.813 14.7218C158.813 11.7624 162.34 10.2378 167.033 10.2378C170.411 10.2378 174.805 11.6428 174.805 14.0043C174.805 18.8171 159.769 14.4527 159.769 26.1409C159.769 29.2498 161.742 31.6114 164.672 31.6114C167.9 31.6114 171.995 28.2933 171.995 19.5944C171.995 18.9367 171.936 18.2492 171.487 18.1296C171.487 17.9502 171.816 17.7111 172.294 17.7111C174.477 17.7111 174.746 19.983 174.746 22.3744C174.746 25.0349 174.776 25.4833 174.776 28.652C174.776 31.163 176.24 31.7011 177.047 31.7011V32H174.925C173.341 32 172.085 30.5352 172.085 28.2933V23.1815C171.009 28.3231 169.036 32.5979 163.805 32.5979C159.949 32.5979 157.139 29.8178 157.139 25.9616Z" fill="#1D1D1D"/>
<path d="M9.21975 37.5441C9.29512 37.5441 9.35889 37.5673 9.41106 37.6137C9.46904 37.6542 9.49803 37.718 9.49803 37.805C9.49803 37.834 9.49223 37.8716 9.48063 37.918L7.55878 43.4836C7.54139 43.5358 7.5095 43.5763 7.46312 43.6053C7.41674 43.6343 7.37036 43.6488 7.32398 43.6488C7.26601 43.6488 7.21383 43.6372 7.16745 43.614C7.12107 43.585 7.08628 43.5416 7.06309 43.4836L5.52387 39.6746L5.59344 39.692L4.05422 43.4836C4.03103 43.5416 3.99334 43.585 3.94117 43.614C3.89479 43.6372 3.84551 43.6488 3.79333 43.6488C3.74695 43.6488 3.70057 43.6343 3.65419 43.6053C3.61361 43.5763 3.58462 43.5358 3.56723 43.4836L1.64537 37.918C1.62798 37.8716 1.61928 37.8369 1.61928 37.8137C1.61928 37.7267 1.65117 37.66 1.71494 37.6137C1.77871 37.5673 1.84249 37.5441 1.90626 37.5441C1.96423 37.5441 2.01641 37.5586 2.06279 37.5876C2.10917 37.6166 2.14105 37.6571 2.15845 37.7093L3.90638 42.8053L3.81072 42.814L5.32386 39.0398C5.34125 38.9876 5.37024 38.9471 5.41082 38.9181C5.4572 38.8833 5.50938 38.8688 5.56735 38.8746C5.62533 38.8688 5.6746 38.8833 5.71519 38.9181C5.76157 38.9471 5.79635 38.9876 5.81954 39.0398L7.31528 42.7966L7.21963 42.8314L8.95886 37.7093C8.97626 37.6571 9.00814 37.6166 9.05452 37.5876C9.1009 37.5586 9.15598 37.5441 9.21975 37.5441ZM14.2098 39.1703C14.575 39.1703 14.8707 39.2485 15.0968 39.4051C15.3229 39.5616 15.4881 39.7732 15.5925 40.0399C15.7026 40.3066 15.7577 40.6022 15.7577 40.9269V43.3879C15.7577 43.4575 15.7316 43.5184 15.6795 43.5705C15.6273 43.6227 15.5664 43.6488 15.4968 43.6488C15.4157 43.6488 15.3519 43.6227 15.3055 43.5705C15.2591 43.5184 15.2359 43.4575 15.2359 43.3879V40.9269C15.2359 40.6892 15.1983 40.4747 15.1229 40.2834C15.0533 40.0921 14.9374 39.9413 14.775 39.8312C14.6127 39.7152 14.3953 39.6573 14.1228 39.6573C13.8793 39.6573 13.6474 39.7152 13.4271 39.8312C13.2126 39.9413 13.0387 40.0921 12.9054 40.2834C12.772 40.4747 12.7054 40.6892 12.7054 40.9269V43.3879C12.7054 43.4575 12.6793 43.5184 12.6271 43.5705C12.5749 43.6227 12.514 43.6488 12.4445 43.6488C12.3633 43.6488 12.2995 43.6227 12.2532 43.5705C12.2068 43.5184 12.1836 43.4575 12.1836 43.3879V37.4745C12.1836 37.4049 12.2068 37.3441 12.2532 37.2919C12.3053 37.2397 12.3691 37.2136 12.4445 37.2136C12.5198 37.2136 12.5807 37.2397 12.6271 37.2919C12.6793 37.3441 12.7054 37.4049 12.7054 37.4745V40.2921L12.5053 40.5964C12.5169 40.4167 12.572 40.2428 12.6706 40.0747C12.7749 39.9007 12.9083 39.7471 13.0706 39.6138C13.2329 39.4746 13.4126 39.3674 13.6098 39.292C13.8069 39.2109 14.0069 39.1703 14.2098 39.1703ZM20.8742 43.7358C20.4278 43.7358 20.0336 43.6401 19.6915 43.4488C19.3495 43.2575 19.0828 42.9908 18.8915 42.6487C18.7002 42.3067 18.6045 41.9067 18.6045 41.4487C18.6045 40.9559 18.7002 40.5356 18.8915 40.1877C19.0886 39.8399 19.3408 39.5732 19.648 39.3877C19.9611 39.1964 20.2916 39.1007 20.6394 39.1007C20.8945 39.1007 21.1409 39.1471 21.3786 39.2398C21.6221 39.3268 21.8366 39.4601 22.0221 39.6399C22.2134 39.8138 22.3641 40.0283 22.4743 40.2834C22.5902 40.5385 22.654 40.8341 22.6656 41.1704C22.6598 41.24 22.6308 41.3008 22.5786 41.353C22.5265 41.3994 22.4656 41.4226 22.396 41.4226H18.9089L18.8045 40.953H22.2308L22.1178 41.0573V40.8834C22.0946 40.6109 22.0076 40.379 21.8569 40.1877C21.7061 39.9964 21.5235 39.8515 21.309 39.7529C21.0945 39.6544 20.8713 39.6051 20.6394 39.6051C20.4655 39.6051 20.2858 39.6399 20.1002 39.7094C19.9205 39.779 19.7553 39.8892 19.6046 40.0399C19.4596 40.1848 19.3408 40.3732 19.248 40.6051C19.1553 40.8312 19.1089 41.1008 19.1089 41.4139C19.1089 41.7559 19.1784 42.0661 19.3176 42.3444C19.4567 42.6227 19.6567 42.843 19.9176 43.0053C20.1843 43.1676 20.5003 43.2488 20.8655 43.2488C21.0684 43.2488 21.251 43.2198 21.4134 43.1618C21.5757 43.1038 21.7177 43.0285 21.8395 42.9357C21.9612 42.8372 22.0627 42.7357 22.1438 42.6314C22.2076 42.5792 22.2714 42.5531 22.3352 42.5531C22.3931 42.5531 22.4424 42.5763 22.483 42.6227C22.5294 42.669 22.5526 42.7212 22.5526 42.7792C22.5526 42.8488 22.5236 42.9096 22.4656 42.9618C22.2917 43.1705 22.0656 43.3531 21.7873 43.5097C21.509 43.6604 21.2047 43.7358 20.8742 43.7358ZM25.7826 43.6488C25.7014 43.6488 25.6376 43.6227 25.5913 43.5705C25.5449 43.5184 25.5217 43.4575 25.5217 43.3879V39.492C25.5217 39.4225 25.5449 39.3616 25.5913 39.3094C25.6434 39.2572 25.7072 39.2311 25.7826 39.2311C25.8579 39.2311 25.9188 39.2572 25.9652 39.3094C26.0174 39.3616 26.0435 39.4225 26.0435 39.492V40.7965L25.913 40.8225C25.9304 40.6196 25.9797 40.4196 26.0609 40.2225C26.1478 40.0196 26.2638 39.8341 26.4087 39.666C26.5536 39.4978 26.7247 39.3616 26.9218 39.2572C27.1247 39.1529 27.3508 39.1007 27.6001 39.1007C27.7044 39.1007 27.8059 39.1239 27.9044 39.1703C28.003 39.2109 28.0523 39.2804 28.0523 39.379C28.0523 39.4659 28.0291 39.5326 27.9827 39.579C27.9363 39.6254 27.8813 39.6486 27.8175 39.6486C27.7653 39.6486 27.7073 39.6341 27.6436 39.6051C27.5856 39.5761 27.5073 39.5616 27.4088 39.5616C27.2464 39.5616 27.0841 39.6109 26.9218 39.7094C26.7595 39.8022 26.6116 39.9297 26.4783 40.0921C26.3449 40.2544 26.2377 40.437 26.1565 40.6399C26.0811 40.837 26.0435 41.037 26.0435 41.24V43.3879C26.0435 43.4575 26.0174 43.5184 25.9652 43.5705C25.913 43.6227 25.8521 43.6488 25.7826 43.6488ZM32.4204 43.7358C31.974 43.7358 31.5798 43.6401 31.2377 43.4488C30.8957 43.2575 30.629 42.9908 30.4377 42.6487C30.2464 42.3067 30.1507 41.9067 30.1507 41.4487C30.1507 40.9559 30.2464 40.5356 30.4377 40.1877C30.6348 39.8399 30.887 39.5732 31.1943 39.3877C31.5073 39.1964 31.8378 39.1007 32.1856 39.1007C32.4407 39.1007 32.6871 39.1471 32.9248 39.2398C33.1683 39.3268 33.3828 39.4601 33.5683 39.6399C33.7596 39.8138 33.9104 40.0283 34.0205 40.2834C34.1365 40.5385 34.2002 40.8341 34.2118 41.1704C34.206 41.24 34.177 41.3008 34.1249 41.353C34.0727 41.3994 34.0118 41.4226 33.9422 41.4226H30.4551L30.3507 40.953H33.777L33.664 41.0573V40.8834C33.6408 40.6109 33.5538 40.379 33.4031 40.1877C33.2524 39.9964 33.0697 39.8515 32.8552 39.7529C32.6407 39.6544 32.4175 39.6051 32.1856 39.6051C32.0117 39.6051 31.832 39.6399 31.6465 39.7094C31.4667 39.779 31.3015 39.8892 31.1508 40.0399C31.0058 40.1848 30.887 40.3732 30.7942 40.6051C30.7015 40.8312 30.6551 41.1008 30.6551 41.4139C30.6551 41.7559 30.7247 42.0661 30.8638 42.3444C31.0029 42.6227 31.203 42.843 31.4638 43.0053C31.7305 43.1676 32.0465 43.2488 32.4117 43.2488C32.6146 43.2488 32.7973 43.2198 32.9596 43.1618C33.1219 43.1038 33.2639 43.0285 33.3857 42.9357C33.5074 42.8372 33.6089 42.7357 33.6901 42.6314C33.7538 42.5792 33.8176 42.5531 33.8814 42.5531C33.9394 42.5531 33.9886 42.5763 34.0292 42.6227C34.0756 42.669 34.0988 42.7212 34.0988 42.7792C34.0988 42.8488 34.0698 42.9096 34.0118 42.9618C33.8379 43.1705 33.6118 43.3531 33.3335 43.5097C33.0552 43.6604 32.7509 43.7358 32.4204 43.7358ZM45.7592 38.0137C45.8288 38.0601 45.8694 38.1209 45.881 38.1963C45.8925 38.2659 45.8752 38.3354 45.8288 38.405C45.7882 38.4572 45.736 38.4862 45.6722 38.492C45.6085 38.4978 45.5476 38.4862 45.4896 38.4572C45.2693 38.3122 45.0316 38.1992 44.7765 38.118C44.5272 38.0369 44.2577 37.9963 43.9678 37.9963C43.6141 37.9963 43.2837 38.0601 42.9764 38.1876C42.675 38.3093 42.4112 38.4891 42.1851 38.7268C41.959 38.9587 41.7822 39.234 41.6546 39.5529C41.5329 39.8718 41.472 40.2225 41.472 40.6051C41.472 40.9994 41.5358 41.3588 41.6633 41.6835C41.7908 42.0023 41.9677 42.2777 42.1938 42.5096C42.4257 42.7415 42.6924 42.9183 42.9938 43.0401C43.2953 43.1618 43.6199 43.2227 43.9678 43.2227C44.2519 43.2227 44.5186 43.1821 44.7678 43.1009C45.0229 43.0198 45.2606 42.9096 45.4809 42.7705C45.5389 42.7357 45.5998 42.7241 45.6635 42.7357C45.7331 42.7415 45.7882 42.7734 45.8288 42.8314C45.881 42.8951 45.8983 42.9647 45.881 43.0401C45.8694 43.1096 45.8317 43.1647 45.7679 43.2053C45.623 43.2981 45.4519 43.385 45.2548 43.4662C45.0577 43.5473 44.849 43.6111 44.6287 43.6575C44.4084 43.7097 44.1881 43.7358 43.9678 43.7358C43.5504 43.7358 43.159 43.6604 42.7938 43.5097C42.4286 43.3589 42.1039 43.1473 41.8198 42.8748C41.5358 42.5966 41.3126 42.2661 41.1502 41.8835C40.9937 41.5008 40.9154 41.0747 40.9154 40.6051C40.9154 40.1529 40.9937 39.7384 41.1502 39.3616C41.3068 38.979 41.5242 38.6485 41.8024 38.3702C42.0807 38.0919 42.4054 37.8745 42.7764 37.718C43.1475 37.5615 43.5446 37.4832 43.9678 37.4832C44.2982 37.4832 44.6171 37.5296 44.9244 37.6223C45.2316 37.7151 45.5099 37.8456 45.7592 38.0137ZM48.8665 43.6488C48.7854 43.6488 48.7216 43.6227 48.6752 43.5705C48.6288 43.5184 48.6056 43.4575 48.6056 43.3879V39.492C48.6056 39.4225 48.6288 39.3616 48.6752 39.3094C48.7274 39.2572 48.7912 39.2311 48.8665 39.2311C48.9419 39.2311 49.0028 39.2572 49.0492 39.3094C49.1013 39.3616 49.1274 39.4225 49.1274 39.492V40.7965L48.997 40.8225C49.0144 40.6196 49.0636 40.4196 49.1448 40.2225C49.2318 40.0196 49.3477 39.8341 49.4927 39.666C49.6376 39.4978 49.8086 39.3616 50.0057 39.2572C50.2086 39.1529 50.4347 39.1007 50.684 39.1007C50.7884 39.1007 50.8898 39.1239 50.9884 39.1703C51.087 39.2109 51.1362 39.2804 51.1362 39.379C51.1362 39.4659 51.113 39.5326 51.0667 39.579C51.0203 39.6254 50.9652 39.6486 50.9014 39.6486C50.8493 39.6486 50.7913 39.6341 50.7275 39.6051C50.6695 39.5761 50.5913 39.5616 50.4927 39.5616C50.3304 39.5616 50.1681 39.6109 50.0057 39.7094C49.8434 39.8022 49.6956 39.9297 49.5622 40.0921C49.4289 40.2544 49.3216 40.437 49.2405 40.6399C49.1651 40.837 49.1274 41.037 49.1274 41.24V43.3879C49.1274 43.4575 49.1013 43.5184 49.0492 43.5705C48.997 43.6227 48.9361 43.6488 48.8665 43.6488ZM55.5044 43.7358C55.058 43.7358 54.6637 43.6401 54.3217 43.4488C53.9796 43.2575 53.713 42.9908 53.5216 42.6487C53.3303 42.3067 53.2347 41.9067 53.2347 41.4487C53.2347 40.9559 53.3303 40.5356 53.5216 40.1877C53.7188 39.8399 53.9709 39.5732 54.2782 39.3877C54.5913 39.1964 54.9217 39.1007 55.2696 39.1007C55.5247 39.1007 55.7711 39.1471 56.0087 39.2398C56.2522 39.3268 56.4667 39.4601 56.6523 39.6399C56.8436 39.8138 56.9943 40.0283 57.1045 40.2834C57.2204 40.5385 57.2842 40.8341 57.2958 41.1704C57.29 41.24 57.261 41.3008 57.2088 41.353C57.1566 41.3994 57.0958 41.4226 57.0262 41.4226H53.539L53.4347 40.953H56.861L56.7479 41.0573V40.8834C56.7247 40.6109 56.6378 40.379 56.487 40.1877C56.3363 39.9964 56.1537 39.8515 55.9392 39.7529C55.7247 39.6544 55.5015 39.6051 55.2696 39.6051C55.0956 39.6051 54.9159 39.6399 54.7304 39.7094C54.5507 39.779 54.3855 39.8892 54.2347 40.0399C54.0898 40.1848 53.9709 40.3732 53.8782 40.6051C53.7854 40.8312 53.739 41.1008 53.739 41.4139C53.739 41.7559 53.8086 42.0661 53.9478 42.3444C54.0869 42.6227 54.2869 42.843 54.5478 43.0053C54.8145 43.1676 55.1304 43.2488 55.4957 43.2488C55.6986 43.2488 55.8812 43.2198 56.0435 43.1618C56.2059 43.1038 56.3479 43.0285 56.4696 42.9357C56.5914 42.8372 56.6928 42.7357 56.774 42.6314C56.8378 42.5792 56.9016 42.5531 56.9653 42.5531C57.0233 42.5531 57.0726 42.5763 57.1132 42.6227C57.1595 42.669 57.1827 42.7212 57.1827 42.7792C57.1827 42.8488 57.1537 42.9096 57.0958 42.9618C56.9218 43.1705 56.6957 43.3531 56.4175 43.5097C56.1392 43.6604 55.8348 43.7358 55.5044 43.7358ZM63.8295 39.2051C63.9049 39.2051 63.9658 39.2311 64.0122 39.2833C64.0643 39.3355 64.0904 39.3993 64.0904 39.4746V43.3879C64.0904 43.4575 64.0643 43.5184 64.0122 43.5705C63.96 43.6227 63.8991 43.6488 63.8295 43.6488C63.7542 43.6488 63.6904 43.6227 63.6382 43.5705C63.5918 43.5184 63.5687 43.4575 63.5687 43.3879V42.3531L63.7165 42.2835C63.7165 42.4458 63.6701 42.6111 63.5773 42.7792C63.4904 42.9473 63.3686 43.1038 63.2121 43.2488C63.0556 43.3937 62.8701 43.5126 62.6556 43.6053C62.4468 43.6923 62.2207 43.7358 61.9772 43.7358C61.583 43.7358 61.2294 43.6343 60.9163 43.4314C60.609 43.2285 60.3656 42.9502 60.1858 42.5966C60.0119 42.2429 59.9249 41.8458 59.9249 41.4052C59.9249 40.953 60.0148 40.5559 60.1945 40.2138C60.3743 39.866 60.6177 39.5935 60.925 39.3964C61.2323 39.1993 61.5801 39.1007 61.9686 39.1007C62.2178 39.1007 62.4497 39.1442 62.6642 39.2311C62.8846 39.3181 63.0759 39.437 63.2382 39.5877C63.4005 39.7384 63.5252 39.9123 63.6121 40.1095C63.7049 40.3008 63.7513 40.5008 63.7513 40.7095L63.5687 40.5791V39.4746C63.5687 39.3993 63.5918 39.3355 63.6382 39.2833C63.6904 39.2311 63.7542 39.2051 63.8295 39.2051ZM62.0207 43.2488C62.328 43.2488 62.6005 43.1705 62.8382 43.014C63.0759 42.8517 63.2614 42.6314 63.3947 42.3531C63.5339 42.069 63.6034 41.753 63.6034 41.4052C63.6034 41.0631 63.5339 40.7559 63.3947 40.4834C63.2614 40.2109 63.0759 39.9935 62.8382 39.8312C62.6005 39.6689 62.328 39.5877 62.0207 39.5877C61.7193 39.5877 61.4468 39.666 61.2033 39.8225C60.9656 39.979 60.7772 40.1935 60.638 40.466C60.5047 40.7385 60.438 41.0515 60.438 41.4052C60.438 41.753 60.5047 42.069 60.638 42.3531C60.7772 42.6314 60.9656 42.8517 61.2033 43.014C61.441 43.1705 61.7135 43.2488 62.0207 43.2488ZM66.9119 39.2224H68.9381C69.0076 39.2224 69.0656 39.2485 69.112 39.3007C69.1584 39.3471 69.1816 39.4051 69.1816 39.4746C69.1816 39.5384 69.1584 39.5935 69.112 39.6399C69.0656 39.6862 69.0076 39.7094 68.9381 39.7094H66.9119C66.8423 39.7094 66.7814 39.6862 66.7292 39.6399C66.6829 39.5877 66.6597 39.5297 66.6597 39.4659C66.6597 39.3964 66.6829 39.3384 66.7292 39.292C66.7814 39.2456 66.8423 39.2224 66.9119 39.2224ZM67.8076 37.9963C67.8829 37.9963 67.9438 38.0224 67.9902 38.0745C68.0424 38.1267 68.0685 38.1876 68.0685 38.2572V42.6227C68.0685 42.785 68.0887 42.9067 68.1293 42.9879C68.1757 43.0691 68.2337 43.1241 68.3032 43.1531C68.3728 43.1763 68.4424 43.1879 68.512 43.1879C68.5583 43.1879 68.5989 43.1821 68.6337 43.1705C68.6743 43.1531 68.7178 43.1444 68.7641 43.1444C68.8163 43.1444 68.8598 43.1647 68.8946 43.2053C68.9352 43.2459 68.9555 43.2981 68.9555 43.3618C68.9555 43.443 68.9091 43.5126 68.8163 43.5705C68.7236 43.6227 68.6134 43.6488 68.4859 43.6488C68.4337 43.6488 68.3554 43.6459 68.2511 43.6401C68.1467 43.6285 68.0395 43.5966 67.9293 43.5444C67.8192 43.4865 67.7264 43.3879 67.651 43.2488C67.5815 43.1096 67.5467 42.9096 67.5467 42.6487V38.2572C67.5467 38.1876 67.5699 38.1267 67.6162 38.0745C67.6684 38.0224 67.7322 37.9963 67.8076 37.9963ZM72.3893 43.3879C72.3893 43.4575 72.3632 43.5184 72.311 43.5705C72.2589 43.6227 72.198 43.6488 72.1284 43.6488C72.053 43.6488 71.9893 43.6227 71.9371 43.5705C71.8907 43.5184 71.8675 43.4575 71.8675 43.3879V39.3877C71.8675 39.3181 71.8907 39.2572 71.9371 39.2051C71.9893 39.1529 72.053 39.1268 72.1284 39.1268C72.2038 39.1268 72.2647 39.1529 72.311 39.2051C72.3632 39.2572 72.3893 39.3181 72.3893 39.3877V43.3879ZM72.1284 38.5441C72.0067 38.5441 71.9139 38.5181 71.8501 38.4659C71.7922 38.4079 71.7632 38.3267 71.7632 38.2224V38.1354C71.7632 38.0311 71.7951 37.9528 71.8588 37.9006C71.9284 37.8427 72.0212 37.8137 72.1371 37.8137C72.2473 37.8137 72.3313 37.8427 72.3893 37.9006C72.4531 37.9528 72.485 38.0311 72.485 38.1354V38.2224C72.485 38.3267 72.4531 38.4079 72.3893 38.4659C72.3313 38.5181 72.2444 38.5441 72.1284 38.5441ZM75.3796 39.1094C75.426 39.1094 75.4724 39.1239 75.5188 39.1529C75.5651 39.1819 75.5999 39.2253 75.6231 39.2833L77.145 42.9009L77.0319 42.9705L78.5885 39.2833C78.6349 39.1674 78.719 39.1123 78.8407 39.1181C78.8987 39.1181 78.9538 39.1384 79.0059 39.179C79.0581 39.2138 79.0842 39.2659 79.0842 39.3355C79.0842 39.3703 79.0784 39.3993 79.0668 39.4225C79.061 39.4399 79.0552 39.4601 79.0494 39.4833L77.345 43.4836C77.2986 43.5879 77.2203 43.643 77.1102 43.6488C77.058 43.6546 77.0058 43.643 76.9536 43.614C76.9073 43.5792 76.8725 43.5358 76.8493 43.4836L75.1361 39.4833C75.1303 39.4717 75.1245 39.4543 75.1187 39.4312C75.1129 39.408 75.11 39.3848 75.11 39.3616C75.11 39.2978 75.1332 39.2398 75.1796 39.1877C75.226 39.1355 75.2927 39.1094 75.3796 39.1094ZM82.3305 43.3879C82.3305 43.4575 82.3044 43.5184 82.2522 43.5705C82.2 43.6227 82.1391 43.6488 82.0696 43.6488C81.9942 43.6488 81.9304 43.6227 81.8783 43.5705C81.8319 43.5184 81.8087 43.4575 81.8087 43.3879V39.3877C81.8087 39.3181 81.8319 39.2572 81.8783 39.2051C81.9304 39.1529 81.9942 39.1268 82.0696 39.1268C82.1449 39.1268 82.2058 39.1529 82.2522 39.2051C82.3044 39.2572 82.3305 39.3181 82.3305 39.3877V43.3879ZM82.0696 38.5441C81.9478 38.5441 81.8551 38.5181 81.7913 38.4659C81.7333 38.4079 81.7043 38.3267 81.7043 38.2224V38.1354C81.7043 38.0311 81.7362 37.9528 81.8 37.9006C81.8696 37.8427 81.9623 37.8137 82.0783 37.8137C82.1884 37.8137 82.2725 37.8427 82.3305 37.9006C82.3942 37.9528 82.4261 38.0311 82.4261 38.1354V38.2224C82.4261 38.3267 82.3942 38.4079 82.3305 38.4659C82.2725 38.5181 82.1855 38.5441 82.0696 38.5441ZM85.1382 39.2224H87.1644C87.234 39.2224 87.2919 39.2485 87.3383 39.3007C87.3847 39.3471 87.4079 39.4051 87.4079 39.4746C87.4079 39.5384 87.3847 39.5935 87.3383 39.6399C87.2919 39.6862 87.234 39.7094 87.1644 39.7094H85.1382C85.0686 39.7094 85.0077 39.6862 84.9556 39.6399C84.9092 39.5877 84.886 39.5297 84.886 39.4659C84.886 39.3964 84.9092 39.3384 84.9556 39.292C85.0077 39.2456 85.0686 39.2224 85.1382 39.2224ZM86.0339 37.9963C86.1092 37.9963 86.1701 38.0224 86.2165 38.0745C86.2687 38.1267 86.2948 38.1876 86.2948 38.2572V42.6227C86.2948 42.785 86.3151 42.9067 86.3556 42.9879C86.402 43.0691 86.46 43.1241 86.5296 43.1531C86.5991 43.1763 86.6687 43.1879 86.7383 43.1879C86.7847 43.1879 86.8252 43.1821 86.86 43.1705C86.9006 43.1531 86.9441 43.1444 86.9905 43.1444C87.0426 43.1444 87.0861 43.1647 87.1209 43.2053C87.1615 43.2459 87.1818 43.2981 87.1818 43.3618C87.1818 43.443 87.1354 43.5126 87.0426 43.5705C86.9499 43.6227 86.8397 43.6488 86.7122 43.6488C86.66 43.6488 86.5817 43.6459 86.4774 43.6401C86.373 43.6285 86.2658 43.5966 86.1556 43.5444C86.0455 43.4865 85.9527 43.3879 85.8774 43.2488C85.8078 43.1096 85.773 42.9096 85.773 42.6487V38.2572C85.773 38.1876 85.7962 38.1267 85.8426 38.0745C85.8947 38.0224 85.9585 37.9963 86.0339 37.9963ZM93.4245 39.1268C93.4999 39.1268 93.5607 39.1529 93.6071 39.2051C93.6593 39.2572 93.6854 39.3181 93.6854 39.3877V43.2227C93.6854 43.6923 93.5926 44.0865 93.4071 44.4054C93.2216 44.73 92.9723 44.9735 92.6592 45.1359C92.3462 45.304 91.9896 45.388 91.5896 45.388C91.3403 45.388 91.1084 45.3591 90.8939 45.3011C90.6852 45.2489 90.5142 45.1793 90.3808 45.0924C90.3113 45.0518 90.2591 45.0025 90.2243 44.9445C90.1895 44.8866 90.1866 44.8257 90.2156 44.7619C90.2446 44.6808 90.2881 44.6257 90.346 44.5967C90.4098 44.5735 90.4736 44.5764 90.5374 44.6054C90.6359 44.6576 90.7779 44.7213 90.9635 44.7967C91.149 44.8721 91.3606 44.9098 91.5983 44.9098C91.9171 44.9098 92.1925 44.8431 92.4244 44.7097C92.6621 44.5764 92.8447 44.3822 92.9723 44.1271C93.0998 43.8778 93.1636 43.5792 93.1636 43.2314V42.6053L93.2245 42.814C93.1375 42.9937 93.0129 43.1531 92.8505 43.2923C92.694 43.4314 92.5114 43.5416 92.3027 43.6227C92.0998 43.6981 91.8824 43.7358 91.6505 43.7358C91.3026 43.7358 91.0127 43.6662 90.7808 43.5271C90.5547 43.3821 90.3866 43.185 90.2765 42.9357C90.1663 42.6864 90.1112 42.3937 90.1112 42.0574V39.3877C90.1112 39.3181 90.1344 39.2572 90.1808 39.2051C90.2272 39.1529 90.291 39.1268 90.3721 39.1268C90.4475 39.1268 90.5084 39.1529 90.5547 39.2051C90.6069 39.2572 90.633 39.3181 90.633 39.3877V41.9791C90.633 42.385 90.72 42.698 90.8939 42.9183C91.0736 43.1386 91.3635 43.2488 91.7635 43.2488C92.0128 43.2488 92.2418 43.1908 92.4505 43.0749C92.6592 42.9531 92.8302 42.7966 92.9636 42.6053C93.0969 42.4081 93.1636 42.1994 93.1636 41.9791V39.3877C93.1636 39.3181 93.1868 39.2572 93.2332 39.2051C93.2853 39.1529 93.3491 39.1268 93.4245 39.1268ZM101.301 37.5615C101.342 37.5615 101.383 37.5702 101.423 37.5876C101.47 37.605 101.507 37.6339 101.536 37.6745L103.936 41.2747L103.702 41.266L106.11 37.6745C106.174 37.5876 106.252 37.5499 106.345 37.5615C106.415 37.5615 106.473 37.5876 106.519 37.6397C106.571 37.6861 106.597 37.747 106.597 37.8224V43.3879C106.597 43.4575 106.571 43.5184 106.519 43.5705C106.467 43.6227 106.403 43.6488 106.328 43.6488C106.247 43.6488 106.18 43.6227 106.128 43.5705C106.076 43.5184 106.05 43.4575 106.05 43.3879V38.3528L106.206 38.3702L104.006 41.7009C103.989 41.7356 103.962 41.7646 103.928 41.7878C103.893 41.8052 103.852 41.811 103.806 41.8052C103.765 41.811 103.725 41.8052 103.684 41.7878C103.649 41.7646 103.62 41.7356 103.597 41.7009L101.388 38.3354L101.554 38.2224V43.3879C101.554 43.4575 101.528 43.5184 101.475 43.5705C101.429 43.6227 101.368 43.6488 101.293 43.6488C101.217 43.6488 101.157 43.6227 101.11 43.5705C101.064 43.5184 101.041 43.4575 101.041 43.3879V37.8224C101.041 37.7528 101.064 37.6919 101.11 37.6397C101.162 37.5876 101.226 37.5615 101.301 37.5615ZM111.851 43.7358C111.405 43.7358 111.011 43.6401 110.669 43.4488C110.326 43.2575 110.06 42.9908 109.868 42.6487C109.677 42.3067 109.582 41.9067 109.582 41.4487C109.582 40.9559 109.677 40.5356 109.868 40.1877C110.066 39.8399 110.318 39.5732 110.625 39.3877C110.938 39.1964 111.269 39.1007 111.616 39.1007C111.872 39.1007 112.118 39.1471 112.356 39.2398C112.599 39.3268 112.814 39.4601 112.999 39.6399C113.19 39.8138 113.341 40.0283 113.451 40.2834C113.567 40.5385 113.631 40.8341 113.643 41.1704C113.637 41.24 113.608 41.3008 113.556 41.353C113.503 41.3994 113.443 41.4226 113.373 41.4226H109.886L109.782 40.953H113.208L113.095 41.0573V40.8834C113.072 40.6109 112.985 40.379 112.834 40.1877C112.683 39.9964 112.501 39.8515 112.286 39.7529C112.072 39.6544 111.848 39.6051 111.616 39.6051C111.442 39.6051 111.263 39.6399 111.077 39.7094C110.898 39.779 110.732 39.8892 110.582 40.0399C110.437 40.1848 110.318 40.3732 110.225 40.6051C110.132 40.8312 110.086 41.1008 110.086 41.4139C110.086 41.7559 110.155 42.0661 110.295 42.3444C110.434 42.6227 110.634 42.843 110.895 43.0053C111.161 43.1676 111.477 43.2488 111.843 43.2488C112.045 43.2488 112.228 43.2198 112.39 43.1618C112.553 43.1038 112.695 43.0285 112.816 42.9357C112.938 42.8372 113.04 42.7357 113.121 42.6314C113.185 42.5792 113.248 42.5531 113.312 42.5531C113.37 42.5531 113.419 42.5763 113.46 42.6227C113.506 42.669 113.53 42.7212 113.53 42.7792C113.53 42.8488 113.501 42.9096 113.443 42.9618C113.269 43.1705 113.043 43.3531 112.764 43.5097C112.486 43.6604 112.182 43.7358 111.851 43.7358ZM118.508 43.7358C118.061 43.7358 117.667 43.6401 117.325 43.4488C116.983 43.2575 116.716 42.9908 116.525 42.6487C116.333 42.3067 116.238 41.9067 116.238 41.4487C116.238 40.9559 116.333 40.5356 116.525 40.1877C116.722 39.8399 116.974 39.5732 117.281 39.3877C117.594 39.1964 117.925 39.1007 118.273 39.1007C118.528 39.1007 118.774 39.1471 119.012 39.2398C119.255 39.3268 119.47 39.4601 119.655 39.6399C119.847 39.8138 119.997 40.0283 120.108 40.2834C120.224 40.5385 120.287 40.8341 120.299 41.1704C120.293 41.24 120.264 41.3008 120.212 41.353C120.16 41.3994 120.099 41.4226 120.029 41.4226H116.542L116.438 40.953H119.864L119.751 41.0573V40.8834C119.728 40.6109 119.641 40.379 119.49 40.1877C119.339 39.9964 119.157 39.8515 118.942 39.7529C118.728 39.6544 118.505 39.6051 118.273 39.6051C118.099 39.6051 117.919 39.6399 117.734 39.7094C117.554 39.779 117.389 39.8892 117.238 40.0399C117.093 40.1848 116.974 40.3732 116.881 40.6051C116.789 40.8312 116.742 41.1008 116.742 41.4139C116.742 41.7559 116.812 42.0661 116.951 42.3444C117.09 42.6227 117.29 42.843 117.551 43.0053C117.818 43.1676 118.134 43.2488 118.499 43.2488C118.702 43.2488 118.884 43.2198 119.047 43.1618C119.209 43.1038 119.351 43.0285 119.473 42.9357C119.595 42.8372 119.696 42.7357 119.777 42.6314C119.841 42.5792 119.905 42.5531 119.968 42.5531C120.026 42.5531 120.076 42.5763 120.116 42.6227C120.163 42.669 120.186 42.7212 120.186 42.7792C120.186 42.8488 120.157 42.9096 120.099 42.9618C119.925 43.1705 119.699 43.3531 119.421 43.5097C119.142 43.6604 118.838 43.7358 118.508 43.7358ZM122.868 39.2224H124.894C124.964 39.2224 125.022 39.2485 125.068 39.3007C125.115 39.3471 125.138 39.4051 125.138 39.4746C125.138 39.5384 125.115 39.5935 125.068 39.6399C125.022 39.6862 124.964 39.7094 124.894 39.7094H122.868C122.798 39.7094 122.738 39.6862 122.685 39.6399C122.639 39.5877 122.616 39.5297 122.616 39.4659C122.616 39.3964 122.639 39.3384 122.685 39.292C122.738 39.2456 122.798 39.2224 122.868 39.2224ZM123.764 37.9963C123.839 37.9963 123.9 38.0224 123.946 38.0745C123.999 38.1267 124.025 38.1876 124.025 38.2572V42.6227C124.025 42.785 124.045 42.9067 124.086 42.9879C124.132 43.0691 124.19 43.1241 124.259 43.1531C124.329 43.1763 124.399 43.1879 124.468 43.1879C124.515 43.1879 124.555 43.1821 124.59 43.1705C124.63 43.1531 124.674 43.1444 124.72 43.1444C124.773 43.1444 124.816 43.1647 124.851 43.2053C124.891 43.2459 124.912 43.2981 124.912 43.3618C124.912 43.443 124.865 43.5126 124.773 43.5705C124.68 43.6227 124.57 43.6488 124.442 43.6488C124.39 43.6488 124.312 43.6459 124.207 43.6401C124.103 43.6285 123.996 43.5966 123.886 43.5444C123.775 43.4865 123.683 43.3879 123.607 43.2488C123.538 43.1096 123.503 42.9096 123.503 42.6487V38.2572C123.503 38.1876 123.526 38.1267 123.572 38.0745C123.625 38.0224 123.688 37.9963 123.764 37.9963ZM127.759 42.9444C127.712 42.8748 127.689 42.8082 127.689 42.7444C127.695 42.6748 127.733 42.6198 127.802 42.5792C127.849 42.5386 127.901 42.5212 127.959 42.527C128.023 42.5328 128.081 42.5618 128.133 42.614C128.289 42.8169 128.478 42.9821 128.698 43.1096C128.924 43.2314 129.191 43.2923 129.498 43.2923C129.66 43.2923 129.82 43.2662 129.976 43.214C130.139 43.156 130.272 43.072 130.376 42.9618C130.481 42.8459 130.533 42.7009 130.533 42.527C130.533 42.3473 130.481 42.2023 130.376 42.0922C130.272 41.982 130.136 41.8951 129.968 41.8313C129.805 41.7675 129.631 41.7125 129.446 41.6661C129.249 41.6139 129.057 41.5559 128.872 41.4922C128.686 41.4226 128.521 41.3385 128.376 41.24C128.237 41.1356 128.124 41.011 128.037 40.866C127.95 40.7211 127.907 40.5443 127.907 40.3356C127.907 40.0921 127.973 39.8776 128.107 39.692C128.24 39.5065 128.42 39.3616 128.646 39.2572C128.878 39.1529 129.139 39.1007 129.428 39.1007C129.573 39.1007 129.73 39.121 129.898 39.1616C130.066 39.1964 130.231 39.2572 130.394 39.3442C130.556 39.4312 130.701 39.55 130.829 39.7007C130.881 39.7529 130.907 39.8138 130.907 39.8834C130.907 39.9471 130.878 40.0051 130.82 40.0573C130.773 40.0921 130.718 40.1095 130.655 40.1095C130.597 40.1095 130.547 40.0863 130.507 40.0399C130.368 39.8834 130.202 39.7645 130.011 39.6833C129.82 39.6022 129.614 39.5616 129.394 39.5616C129.226 39.5616 129.066 39.5906 128.915 39.6486C128.77 39.7007 128.649 39.7819 128.55 39.8921C128.452 40.0022 128.402 40.1471 128.402 40.3269C128.414 40.495 128.472 40.6312 128.576 40.7356C128.686 40.8399 128.828 40.9269 129.002 40.9965C129.182 41.066 129.382 41.1298 129.602 41.1878C129.788 41.2342 129.965 41.2892 130.133 41.353C130.307 41.4168 130.457 41.4979 130.585 41.5965C130.718 41.6893 130.823 41.8081 130.898 41.953C130.979 42.098 131.02 42.2806 131.02 42.5009C131.02 42.756 130.947 42.9763 130.802 43.1618C130.663 43.3473 130.475 43.4894 130.237 43.5879C129.999 43.6865 129.736 43.7358 129.446 43.7358C129.133 43.7358 128.828 43.6749 128.533 43.5531C128.243 43.4314 127.985 43.2285 127.759 42.9444ZM142.518 38.0137C142.587 38.0601 142.628 38.1209 142.64 38.1963C142.651 38.2659 142.634 38.3354 142.587 38.405C142.547 38.4572 142.495 38.4862 142.431 38.492C142.367 38.4978 142.306 38.4862 142.248 38.4572C142.028 38.3122 141.79 38.1992 141.535 38.118C141.286 38.0369 141.016 37.9963 140.726 37.9963C140.373 37.9963 140.042 38.0601 139.735 38.1876C139.434 38.3093 139.17 38.4891 138.944 38.7268C138.718 38.9587 138.541 39.234 138.413 39.5529C138.291 39.8718 138.231 40.2225 138.231 40.6051C138.231 40.9994 138.294 41.3588 138.422 41.6835C138.549 42.0023 138.726 42.2777 138.952 42.5096C139.184 42.7415 139.451 42.9183 139.752 43.0401C140.054 43.1618 140.379 43.2227 140.726 43.2227C141.01 43.2227 141.277 43.1821 141.526 43.1009C141.782 43.0198 142.019 42.9096 142.24 42.7705C142.298 42.7357 142.358 42.7241 142.422 42.7357C142.492 42.7415 142.547 42.7734 142.587 42.8314C142.64 42.8951 142.657 42.9647 142.64 43.0401C142.628 43.1096 142.59 43.1647 142.527 43.2053C142.382 43.2981 142.211 43.385 142.013 43.4662C141.816 43.5473 141.608 43.6111 141.387 43.6575C141.167 43.7097 140.947 43.7358 140.726 43.7358C140.309 43.7358 139.918 43.6604 139.552 43.5097C139.187 43.3589 138.863 43.1473 138.578 42.8748C138.294 42.5966 138.071 42.2661 137.909 41.8835C137.752 41.5008 137.674 41.0747 137.674 40.6051C137.674 40.1529 137.752 39.7384 137.909 39.3616C138.065 38.979 138.283 38.6485 138.561 38.3702C138.839 38.0919 139.164 37.8745 139.535 37.718C139.906 37.5615 140.303 37.4832 140.726 37.4832C141.057 37.4832 141.376 37.5296 141.683 37.6223C141.99 37.7151 142.269 37.8456 142.518 38.0137ZM145.938 43.3879C145.938 43.4575 145.912 43.5184 145.86 43.5705C145.808 43.6227 145.747 43.6488 145.677 43.6488C145.602 43.6488 145.538 43.6227 145.486 43.5705C145.44 43.5184 145.416 43.4575 145.416 43.3879V37.4745C145.416 37.4049 145.443 37.3441 145.495 37.2919C145.547 37.2397 145.608 37.2136 145.677 37.2136C145.753 37.2136 145.814 37.2397 145.86 37.2919C145.912 37.3441 145.938 37.4049 145.938 37.4745V43.3879ZM152.751 39.2051C152.827 39.2051 152.888 39.2311 152.934 39.2833C152.986 39.3355 153.012 39.3993 153.012 39.4746V43.3879C153.012 43.4575 152.986 43.5184 152.934 43.5705C152.882 43.6227 152.821 43.6488 152.751 43.6488C152.676 43.6488 152.612 43.6227 152.56 43.5705C152.514 43.5184 152.491 43.4575 152.491 43.3879V42.3531L152.638 42.2835C152.638 42.4458 152.592 42.6111 152.499 42.7792C152.412 42.9473 152.291 43.1038 152.134 43.2488C151.977 43.3937 151.792 43.5126 151.577 43.6053C151.369 43.6923 151.143 43.7358 150.899 43.7358C150.505 43.7358 150.151 43.6343 149.838 43.4314C149.531 43.2285 149.287 42.9502 149.108 42.5966C148.934 42.2429 148.847 41.8458 148.847 41.4052C148.847 40.953 148.937 40.5559 149.116 40.2138C149.296 39.866 149.54 39.5935 149.847 39.3964C150.154 39.1993 150.502 39.1007 150.89 39.1007C151.14 39.1007 151.372 39.1442 151.586 39.2311C151.806 39.3181 151.998 39.437 152.16 39.5877C152.322 39.7384 152.447 39.9123 152.534 40.1095C152.627 40.3008 152.673 40.5008 152.673 40.7095L152.491 40.5791V39.4746C152.491 39.3993 152.514 39.3355 152.56 39.2833C152.612 39.2311 152.676 39.2051 152.751 39.2051ZM150.943 43.2488C151.25 43.2488 151.522 43.1705 151.76 43.014C151.998 42.8517 152.183 42.6314 152.317 42.3531C152.456 42.069 152.525 41.753 152.525 41.4052C152.525 41.0631 152.456 40.7559 152.317 40.4834C152.183 40.2109 151.998 39.9935 151.76 39.8312C151.522 39.6689 151.25 39.5877 150.943 39.5877C150.641 39.5877 150.369 39.666 150.125 39.8225C149.887 39.979 149.699 40.1935 149.56 40.466C149.427 40.7385 149.36 41.0515 149.36 41.4052C149.36 41.753 149.427 42.069 149.56 42.3531C149.699 42.6314 149.887 42.8517 150.125 43.014C150.363 43.1705 150.635 43.2488 150.943 43.2488ZM156.382 43.6488C156.3 43.6488 156.237 43.6227 156.19 43.5705C156.144 43.5184 156.121 43.4575 156.121 43.3879V39.492C156.121 39.4225 156.144 39.3616 156.19 39.3094C156.242 39.2572 156.306 39.2311 156.382 39.2311C156.457 39.2311 156.518 39.2572 156.564 39.3094C156.616 39.3616 156.642 39.4225 156.642 39.492V40.7965L156.512 40.8225C156.529 40.6196 156.579 40.4196 156.66 40.2225C156.747 40.0196 156.863 39.8341 157.008 39.666C157.153 39.4978 157.324 39.3616 157.521 39.2572C157.724 39.1529 157.95 39.1007 158.199 39.1007C158.303 39.1007 158.405 39.1239 158.503 39.1703C158.602 39.2109 158.651 39.2804 158.651 39.379C158.651 39.4659 158.628 39.5326 158.582 39.579C158.535 39.6254 158.48 39.6486 158.416 39.6486C158.364 39.6486 158.306 39.6341 158.243 39.6051C158.185 39.5761 158.106 39.5616 158.008 39.5616C157.845 39.5616 157.683 39.6109 157.521 39.7094C157.358 39.8022 157.211 39.9297 157.077 40.0921C156.944 40.2544 156.837 40.437 156.756 40.6399C156.68 40.837 156.642 41.037 156.642 41.24V43.3879C156.642 43.4575 156.616 43.5184 156.564 43.5705C156.512 43.6227 156.451 43.6488 156.382 43.6488ZM161.71 43.3879C161.71 43.4575 161.684 43.5184 161.632 43.5705C161.58 43.6227 161.519 43.6488 161.449 43.6488C161.374 43.6488 161.31 43.6227 161.258 43.5705C161.212 43.5184 161.189 43.4575 161.189 43.3879V39.3877C161.189 39.3181 161.212 39.2572 161.258 39.2051C161.31 39.1529 161.374 39.1268 161.449 39.1268C161.525 39.1268 161.586 39.1529 161.632 39.2051C161.684 39.2572 161.71 39.3181 161.71 39.3877V43.3879ZM161.449 38.5441C161.328 38.5441 161.235 38.5181 161.171 38.4659C161.113 38.4079 161.084 38.3267 161.084 38.2224V38.1354C161.084 38.0311 161.116 37.9528 161.18 37.9006C161.249 37.8427 161.342 37.8137 161.458 37.8137C161.568 37.8137 161.652 37.8427 161.71 37.9006C161.774 37.9528 161.806 38.0311 161.806 38.1354V38.2224C161.806 38.3267 161.774 38.4079 161.71 38.4659C161.652 38.5181 161.565 38.5441 161.449 38.5441ZM164.518 39.2224H166.544C166.614 39.2224 166.672 39.2485 166.718 39.3007C166.765 39.3471 166.788 39.4051 166.788 39.4746C166.788 39.5384 166.765 39.5935 166.718 39.6399C166.672 39.6862 166.614 39.7094 166.544 39.7094H164.518C164.448 39.7094 164.388 39.6862 164.335 39.6399C164.289 39.5877 164.266 39.5297 164.266 39.4659C164.266 39.3964 164.289 39.3384 164.335 39.292C164.388 39.2456 164.448 39.2224 164.518 39.2224ZM165.414 37.9963C165.489 37.9963 165.55 38.0224 165.596 38.0745C165.649 38.1267 165.675 38.1876 165.675 38.2572V42.6227C165.675 42.785 165.695 42.9067 165.735 42.9879C165.782 43.0691 165.84 43.1241 165.909 43.1531C165.979 43.1763 166.049 43.1879 166.118 43.1879C166.164 43.1879 166.205 43.1821 166.24 43.1705C166.28 43.1531 166.324 43.1444 166.37 43.1444C166.422 43.1444 166.466 43.1647 166.501 43.2053C166.541 43.2459 166.562 43.2981 166.562 43.3618C166.562 43.443 166.515 43.5126 166.422 43.5705C166.33 43.6227 166.22 43.6488 166.092 43.6488C166.04 43.6488 165.962 43.6459 165.857 43.6401C165.753 43.6285 165.646 43.5966 165.535 43.5444C165.425 43.4865 165.333 43.3879 165.257 43.2488C165.188 43.1096 165.153 42.9096 165.153 42.6487V38.2572C165.153 38.1876 165.176 38.1267 165.222 38.0745C165.275 38.0224 165.338 37.9963 165.414 37.9963ZM172.804 39.1268C172.88 39.1268 172.941 39.1529 172.987 39.2051C173.039 39.2572 173.065 39.3181 173.065 39.3877V43.2227C173.065 43.6923 172.972 44.0865 172.787 44.4054C172.601 44.73 172.352 44.9735 172.039 45.1359C171.726 45.304 171.369 45.388 170.969 45.388C170.72 45.388 170.488 45.3591 170.274 45.3011C170.065 45.2489 169.894 45.1793 169.761 45.0924C169.691 45.0518 169.639 45.0025 169.604 44.9445C169.569 44.8866 169.566 44.8257 169.595 44.7619C169.624 44.6808 169.668 44.6257 169.726 44.5967C169.79 44.5735 169.853 44.5764 169.917 44.6054C170.016 44.6576 170.158 44.7213 170.343 44.7967C170.529 44.8721 170.74 44.9098 170.978 44.9098C171.297 44.9098 171.572 44.8431 171.804 44.7097C172.042 44.5764 172.225 44.3822 172.352 44.1271C172.48 43.8778 172.543 43.5792 172.543 43.2314V42.6053L172.604 42.814C172.517 42.9937 172.393 43.1531 172.23 43.2923C172.074 43.4314 171.891 43.5416 171.683 43.6227C171.48 43.6981 171.262 43.7358 171.03 43.7358C170.682 43.7358 170.393 43.6662 170.161 43.5271C169.935 43.3821 169.766 43.185 169.656 42.9357C169.546 42.6864 169.491 42.3937 169.491 42.0574V39.3877C169.491 39.3181 169.514 39.2572 169.561 39.2051C169.607 39.1529 169.671 39.1268 169.752 39.1268C169.827 39.1268 169.888 39.1529 169.935 39.2051C169.987 39.2572 170.013 39.3181 170.013 39.3877V41.9791C170.013 42.385 170.1 42.698 170.274 42.9183C170.453 43.1386 170.743 43.2488 171.143 43.2488C171.393 43.2488 171.622 43.1908 171.83 43.0749C172.039 42.9531 172.21 42.7966 172.343 42.6053C172.477 42.4081 172.543 42.1994 172.543 41.9791V39.3877C172.543 39.3181 172.567 39.2572 172.613 39.2051C172.665 39.1529 172.729 39.1268 172.804 39.1268ZM176.242 43.6488C176.144 43.6488 176.069 43.6169 176.016 43.5531C175.964 43.4894 175.938 43.4082 175.938 43.3097V43.127C175.938 43.0227 175.964 42.9415 176.016 42.8835C176.069 42.8256 176.144 42.7966 176.242 42.7966H176.303C176.402 42.7966 176.477 42.8256 176.529 42.8835C176.582 42.9415 176.608 43.0227 176.608 43.127V43.3097C176.608 43.4082 176.582 43.4894 176.529 43.5531C176.477 43.6169 176.402 43.6488 176.303 43.6488H176.242Z" fill="#1D1D1D"/>
</svg>
